<svg width="294" height="150" viewBox="0 0 294 150" fill="none" xmlns="http://www.w3.org/2000/svg">
<g clip-path="url(#clip0_1_15)">
<path d="M168.437 75.0178C168.437 63.8592 154.463 53.2864 133.04 46.729C137.982 24.8911 135.785 7.51952 126.103 1.95621C123.873 0.65325 121.264 0.035497 118.413 0.035497V7.68994C119.993 7.68994 121.264 7.99881 122.329 8.58461C126.998 11.2615 129.021 21.458 127.445 34.5728C127.065 37.8 126.447 41.2012 125.691 44.6663C118.963 43.0189 111.614 41.7479 103.892 40.9243C99.2556 34.5728 94.4485 28.8071 89.6095 23.7586C100.8 13.3562 111.305 7.65798 118.449 7.65798V0C109.008 0 96.6461 6.72781 84.1491 18.4012C71.6521 6.79881 59.2935 0.138453 49.8497 0.138453V7.7929C56.9574 7.7929 67.4982 13.4592 78.6923 23.7941C73.8852 28.8391 69.0781 34.5728 64.5124 40.9243C56.7515 41.7479 49.4059 43.0189 42.6746 44.7018C41.8864 41.2686 41.3006 37.9385 40.8888 34.7467C39.2769 21.6284 41.2686 11.4319 45.9018 8.71952C46.9314 8.10177 48.2734 7.8284 49.8497 7.8284V0.170415C46.9669 0.170415 44.3574 0.791716 42.0923 2.09468C32.4462 7.65799 30.2805 24.9941 35.2615 46.7609C13.9065 53.3538 0 63.8947 0 75.0178C0 86.1763 13.974 96.7491 35.3965 103.307C30.4544 125.144 32.6521 142.516 42.3337 148.079C44.5633 149.382 47.1728 150 50.0556 150C59.4994 150 71.858 143.272 84.355 131.599C96.8521 143.201 109.214 149.862 118.654 149.862C121.537 149.862 124.147 149.244 126.412 147.941C136.062 142.378 138.224 125.041 133.246 103.275C154.53 96.7171 168.437 86.1408 168.437 75.0178ZM123.735 52.1183C122.464 56.5456 120.884 61.1112 119.102 65.6805C117.692 62.9325 116.215 60.1846 114.604 57.4402C113.024 54.6923 111.341 52.0154 109.658 49.4059C114.533 50.1266 119.237 51.0178 123.735 52.1183ZM108.011 88.6828C105.334 93.316 102.586 97.7112 99.7385 101.798C94.6225 102.245 89.4355 102.483 84.2201 102.483C79.0331 102.483 73.8497 102.245 68.7692 101.833C65.9183 97.7467 63.1385 93.387 60.4615 88.7858C57.8521 84.2876 55.4805 79.7219 53.3183 75.1207C55.4485 70.5195 57.8521 65.9183 60.426 61.4201C63.103 56.787 65.8509 52.3917 68.6982 48.3053C73.8142 47.8615 79.0012 47.6201 84.2201 47.6201C89.4035 47.6201 94.587 47.8615 99.6674 48.2734C102.518 52.3562 105.298 56.7195 107.975 61.3172C110.585 65.8154 112.956 70.3811 115.118 74.9822C112.956 79.5834 110.585 84.1846 108.011 88.6828ZM119.102 84.2201C120.955 88.8177 122.535 93.4189 123.838 97.8817C119.34 98.9822 114.604 99.9089 109.694 100.63C111.376 97.9846 113.059 95.2722 114.636 92.4923C116.215 89.7479 117.692 86.9645 119.102 84.2201ZM84.2876 120.852C81.0923 117.557 77.9006 113.883 74.7408 109.864C77.8331 110.002 80.9894 110.105 84.1846 110.105C87.4118 110.105 90.6036 110.038 93.7278 109.864C90.6391 113.883 87.4473 117.557 84.2876 120.852ZM58.7432 100.63C53.8686 99.9089 49.1645 99.0177 44.6663 97.9172C45.9373 93.4899 47.5172 88.9207 49.303 84.355C50.7089 87.103 52.1858 89.8509 53.8012 92.5953C55.413 95.3432 57.0604 98.0201 58.7432 100.63ZM84.1136 29.1834C87.3089 32.4781 90.5006 36.1527 93.6603 40.168C90.5716 40.0331 87.4118 39.9302 84.2201 39.9302C80.9893 39.9302 77.7976 39.9976 74.6734 40.168C77.7621 36.1527 80.9574 32.4781 84.1136 29.1834ZM58.7077 49.4059C57.0284 52.0473 55.3456 54.7598 53.7657 57.5432C52.1858 60.2876 50.7089 63.0355 49.303 65.7834C47.4462 61.1822 45.8698 56.5811 44.5633 52.1183C49.0615 51.0533 53.8012 50.1266 58.7077 49.4059ZM27.6391 92.3893C15.4828 87.2059 7.62248 80.4071 7.62248 75.0178C7.62248 69.6284 15.4828 62.7941 27.6391 57.6462C30.5893 56.3751 33.8166 55.2426 37.1468 54.1775C39.1065 60.9053 41.6805 67.91 44.8722 75.0852C41.716 82.2284 39.174 89.1976 37.2497 95.8935C33.8521 94.8284 30.6249 93.6603 27.6391 92.3893ZM46.1077 141.451C41.4391 138.774 39.4154 128.577 40.9917 115.463C41.3716 112.235 41.9894 108.834 42.7456 105.369C49.4734 107.017 56.8225 108.288 64.5444 109.111C69.1811 115.463 73.9882 121.228 78.8272 126.277C67.6367 136.679 57.1314 142.378 49.9882 142.378C48.4438 142.346 47.1373 142.037 46.1077 141.451ZM127.548 115.289C129.16 128.404 127.168 138.604 122.535 141.312C121.505 141.934 120.163 142.207 118.587 142.207C111.479 142.207 100.938 136.541 89.7444 126.209C94.5515 121.161 99.3586 115.427 103.924 109.076C111.685 108.252 119.031 106.981 125.762 105.298C126.55 108.767 127.168 112.097 127.548 115.289ZM140.766 92.3893C137.812 93.6603 134.585 94.7929 131.254 95.858C129.298 89.1266 126.721 82.1254 123.529 74.9503C126.689 67.8071 129.227 60.8379 131.151 54.142C134.549 55.2071 137.776 56.3751 140.798 57.6462C152.954 62.8296 160.814 69.6284 160.814 75.0178C160.782 80.4071 152.918 87.2414 140.766 92.3893Z" fill="#58C4DC"/>
<path d="M84.1842 90.7076C92.8496 90.7076 99.8743 83.6829 99.8743 75.0175C99.8743 66.3521 92.8496 59.3274 84.1842 59.3274C75.5188 59.3274 68.4941 66.3521 68.4941 75.0175C68.4941 83.6829 75.5188 90.7076 84.1842 90.7076Z" fill="#58C4DC"/>
<path d="M220.409 74.2438V138.462H210.682V74.2438H220.409ZM209.861 56.8402C209.861 54.613 210.408 52.9823 211.502 51.9479C212.595 50.9136 213.963 50.3965 215.606 50.3965C217.168 50.3965 218.515 50.9231 219.646 51.9763C220.78 53.032 221.347 54.6533 221.347 56.8402C221.347 59.0272 220.78 60.658 219.646 61.7326C218.515 62.8071 217.168 63.3444 215.606 63.3444C213.963 63.3444 212.595 62.8071 211.502 61.7326C210.408 60.658 209.861 59.0272 209.861 56.8402ZM286.033 138.462L284.744 129.849H284.219C279.726 136.372 273.007 139.633 264.06 139.633C255.663 139.633 249.13 136.762 244.463 131.02C239.795 125.278 237.461 117.115 237.461 106.53C237.461 95.9432 239.805 87.7195 244.491 81.8592C249.18 76.0012 255.703 73.0722 264.06 73.0722C272.773 73.0722 279.453 76.2355 284.102 82.5621H284.861L284.453 77.9361L284.219 73.4237V47.2899H293.943V138.462H286.033ZM265.292 131.489C271.934 131.489 276.748 129.683 279.735 126.071C282.724 122.457 284.219 116.626 284.219 108.579V106.53C284.219 97.4272 282.705 90.9326 279.678 87.0462C276.651 83.1598 271.816 81.2166 265.175 81.2166C259.471 81.2166 255.105 83.4332 252.078 87.8663C249.051 92.2994 247.537 98.5598 247.537 106.647C247.537 114.849 249.041 121.039 252.05 125.219C255.058 129.399 259.472 131.489 265.292 131.489ZM177.344 132.252C177.344 129.634 177.939 127.652 179.13 126.305C180.321 124.956 182.029 124.282 184.257 124.282C186.522 124.282 188.29 124.956 189.561 126.305C190.829 127.652 191.464 129.634 191.464 132.252C191.464 134.789 190.819 136.742 189.529 138.11C188.241 139.478 186.484 140.162 184.257 140.162C182.264 140.162 180.613 139.547 179.304 138.316C177.997 137.085 177.344 135.064 177.344 132.252Z" fill="#58C4DC"/>
</g>
<defs>
<clipPath id="clip0_1_15">
<rect width="293.943" height="150" fill="white"/>
</clipPath>
</defs>
</svg>
